# xmcd CD database file
#
# Track frame offsets:
#	150
#	19362
#	40945
#	51152
#	65382
#	84410
#	101220
#	121047
#	138812
#	152757
#	166865
#	179940
#	195302
#	213660
#	228567
#	245565
#
# Disc length: 3517 seconds
#
# Revision: 0
# Processed by: cddbd v1.5.1PL2 Copyright (c) Steve Scherf et al.
# Submitted via: CDex 1.51
#
DISCID=de0dbb10
DTITLE=AAVV - Merengue
DYEAR=1900
DGENRE=Merengue
TTITLE0=Compadre Pedro Juan
TTITLE1=El Pambiche Lento
TTITLE2=Amor Profundo
TTITLE3=Salve De Las Auroras
TTITLE4=Mandé
TTITLE5=Dolorita
TTITLE6=Juanita Morel
TTITLE7=Juan Gomero
TTITLE8=Rubén
TTITLE9=Ritmo De Salve
TTITLE10=Pajarito Cantador
TTITLE11=La Empalizà
TTITLE12=Cara Sucia
TTITLE13=Heroìna
TTITLE14=Guayacanal
TTITLE15=La Maricutana
EXTD=
EXTT0=
EXTT1=
EXTT2=
EXTT3=
EXTT4=
EXTT5=
EXTT6=
EXTT7=
EXTT8=
EXTT9=
EXTT10=
EXTT11=
EXTT12=
EXTT13=
EXTT14=
EXTT15=
PLAYORDER=
